<svg width="263" height="76" viewBox="0 0 263 76" fill="none" xmlns="http://www.w3.org/2000/svg">
<g clip-path="url(#clip0_410_2)">
<path d="M18.7199 51.9049C17.5866 51.9049 16.6799 51.4516 15.9999 50.5449C15.3199 49.6382 14.9799 48.4199 14.9799 46.8899C14.9799 45.3599 15.2066 44.1416 15.6599 43.2349C16.1132 42.2716 16.9349 41.5066 18.1249 40.9399C19.2582 40.4299 20.2782 40.1182 21.1849 40.0049C22.1482 39.8349 22.8566 39.4382 23.3099 38.8149H23.4799V44.3399C23.4799 46.8899 23.1116 48.7882 22.3749 50.0349C21.6382 51.2816 20.4199 51.9049 18.7199 51.9049ZM24.4149 60.9999H39.2049C38.5816 59.8099 38.1849 58.3932 38.0149 56.7499C37.8449 55.1066 37.7599 53.2082 37.7599 51.0549V28.6149C37.7599 25.6116 37.3066 23.1749 36.3999 21.3049C35.5499 19.3782 34.3032 17.8766 32.6599 16.7999C31.0732 15.6666 29.1466 14.9016 26.8799 14.5049C24.6699 14.0516 22.2332 13.8249 19.5699 13.8249C17.8132 13.8249 15.9149 14.0232 13.8749 14.4199C11.8349 14.7599 9.93661 15.4966 8.17994 16.6299C6.42327 17.7066 4.94994 19.2649 3.75994 21.3049C2.56994 23.2882 1.97494 25.9516 1.97494 29.2949H15.2349C15.2916 26.8582 15.6599 25.2432 16.3399 24.4499C17.0199 23.5999 18.0966 23.1749 19.5699 23.1749C22.1766 23.1749 23.4799 24.5916 23.4799 27.4249C23.4799 28.8416 23.1399 29.9466 22.4599 30.7399C21.7799 31.4766 20.6182 32.0432 18.9749 32.4399L12.9399 33.8849C10.5032 34.4516 8.46327 35.1599 6.81994 36.0099C5.17661 36.8032 3.87327 37.7949 2.90994 38.9849C1.94661 40.1182 1.23827 41.4782 0.784941 43.0649C0.388274 44.6516 0.189941 46.5216 0.189941 48.6749C0.189941 50.6582 0.416608 52.4716 0.869941 54.1149C1.32327 55.7582 2.05994 57.1749 3.07994 58.3649C4.09994 59.5549 5.40327 60.4332 6.98994 60.9999C8.63327 61.6232 10.6166 61.9349 12.9399 61.9349C15.3199 61.9349 17.4166 61.4249 19.2299 60.4049C21.0999 59.3849 22.4599 57.8549 23.3099 55.8149H23.4799C23.5932 56.7782 23.7066 57.6849 23.8199 58.5349C23.9332 59.3849 24.1316 60.2066 24.4149 60.9999ZM60.1149 37.9649C60.1149 35.4716 60.1716 33.4316 60.2849 31.8449C60.3982 30.2016 60.5966 28.8982 60.8799 27.9349C61.2199 26.9149 61.6732 26.2066 62.2399 25.8099C62.8066 25.4132 63.5149 25.2149 64.3649 25.2149C65.2716 25.2149 66.0082 25.4132 66.5749 25.8099C67.1416 26.2066 67.5666 26.9149 67.8499 27.9349C68.1899 28.8982 68.4166 30.2016 68.5299 31.8449C68.6432 33.4316 68.6999 35.4716 68.6999 37.9649C68.6999 40.4582 68.6432 42.5266 68.5299 44.1699C68.4166 45.8132 68.1899 47.1449 67.8499 48.1649C67.5666 49.1282 67.1416 49.8082 66.5749 50.2049C66.0082 50.6016 65.2716 50.7999 64.3649 50.7999C63.5149 50.7999 62.8066 50.6016 62.2399 50.2049C61.6732 49.8082 61.2199 49.1282 60.8799 48.1649C60.5966 47.1449 60.3982 45.8132 60.2849 44.1699C60.1716 42.5266 60.1149 40.4582 60.1149 37.9649ZM44.8149 15.0149V75.7049H60.1149V55.8149H60.2849C61.0782 58.1949 62.3249 59.8099 64.0249 60.6599C65.7816 61.5099 67.7366 61.9349 69.8899 61.9349C72.0432 61.9349 73.9699 61.5949 75.6699 60.9149C77.4266 60.1782 78.8999 58.9316 80.0899 57.1749C81.3366 55.3616 82.2999 52.9816 82.9799 50.0349C83.6599 47.0882 83.9999 43.4049 83.9999 38.9849C83.9999 30.4849 82.9799 24.1666 80.9399 20.0299C78.8999 15.8932 75.3299 13.8249 70.2299 13.8249C65.0166 13.8249 61.5316 16.3182 59.7749 21.3049H59.6049V15.0149H44.8149ZM88.9751 0.309937V11.6999H104.275V0.309937H88.9751ZM88.9751 15.0149V60.9999H104.275V15.0149H88.9751ZM107.744 15.0149V25.2999H112.844V49.7799C112.844 52.3299 113.071 54.3982 113.524 55.9849C114.034 57.5149 114.799 58.6766 115.819 59.4699C116.896 60.2632 118.256 60.7732 119.899 60.9999C121.543 61.1699 123.526 61.2549 125.849 61.2549C127.153 61.2549 128.513 61.1982 129.929 61.0849C131.346 61.0282 132.763 60.9999 134.179 60.9999V50.7999H131.799C130.553 50.7999 129.618 50.5449 128.994 50.0349C128.428 49.4682 128.144 48.5332 128.144 47.2299V25.2999H134.179V15.0149H128.144V1.49994H112.844V15.0149H107.744ZM137.446 15.0149V49.6949C137.446 52.1316 137.757 54.1716 138.381 55.8149C139.004 57.4016 139.854 58.6766 140.931 59.6399C142.007 60.5466 143.254 61.1416 144.671 61.4249C146.144 61.7649 147.731 61.9349 149.431 61.9349C154.927 61.9349 158.639 59.7532 160.566 55.3899H160.736V60.9999H175.526V15.0149H160.226V45.3599C160.226 47.2866 159.942 48.6749 159.376 49.5249C158.809 50.3749 157.846 50.7999 156.486 50.7999C155.126 50.7999 154.162 50.3749 153.596 49.5249C153.029 48.6749 152.746 47.2866 152.746 45.3599V15.0149H137.446ZM197.161 38.0499C197.161 35.5566 197.218 33.4882 197.331 31.8449C197.444 30.2016 197.643 28.8982 197.926 27.9349C198.266 26.9149 198.719 26.2066 199.286 25.8099C199.853 25.4132 200.561 25.2149 201.411 25.2149C202.318 25.2149 203.054 25.4132 203.621 25.8099C204.188 26.2066 204.613 26.9149 204.896 27.9349C205.236 28.8982 205.463 30.2016 205.576 31.8449C205.689 33.4882 205.746 35.5566 205.746 38.0499C205.746 40.4866 205.689 42.5266 205.576 44.1699C205.463 45.8132 205.236 47.1449 204.896 48.1649C204.613 49.1282 204.188 49.8082 203.621 50.2049C203.054 50.6016 202.318 50.7999 201.411 50.7999C200.561 50.7999 199.853 50.6016 199.286 50.2049C198.719 49.8082 198.266 49.1282 197.926 48.1649C197.643 47.1449 197.444 45.8132 197.331 44.1699C197.218 42.5266 197.161 40.4866 197.161 38.0499ZM181.861 0.309937V60.9999H196.651V54.7099H196.821C197.784 57.2599 199.088 59.1016 200.731 60.2349C202.374 61.3682 204.556 61.9349 207.276 61.9349C212.376 61.9349 215.946 59.9232 217.986 55.8999C220.026 51.8766 221.046 45.5866 221.046 37.0299C221.046 32.6099 220.706 28.9266 220.026 25.9799C219.403 22.9766 218.496 20.5966 217.306 18.8399C216.116 17.0266 214.643 15.7516 212.886 15.0149C211.129 14.2216 209.146 13.8249 206.936 13.8249C204.783 13.8249 202.828 14.3066 201.071 15.2699C199.371 16.1766 198.124 17.8199 197.331 20.1999H197.161V0.309937H181.861ZM248.121 30.2299V32.2699H239.706V30.2299C239.706 27.7932 239.989 26.0082 240.556 24.8749C241.179 23.7416 242.284 23.1749 243.871 23.1749C245.514 23.1749 246.619 23.7416 247.186 24.8749C247.809 26.0082 248.121 27.7932 248.121 30.2299ZM239.706 40.5999H262.401V35.9249C262.401 31.7316 262.004 28.2466 261.211 25.4699C260.474 22.6366 259.313 20.3699 257.726 18.6699C256.196 16.9132 254.269 15.6666 251.946 14.9299C249.679 14.1932 247.016 13.8249 243.956 13.8249C240.499 13.8249 237.524 14.2782 235.031 15.1849C232.594 16.0349 230.583 17.4232 228.996 19.3499C227.409 21.2766 226.248 23.7699 225.511 26.8299C224.774 29.8899 224.406 33.6299 224.406 38.0499C224.406 42.4132 224.718 46.1249 225.341 49.1849C226.021 52.2449 227.126 54.7382 228.656 56.6649C230.186 58.5349 232.198 59.8949 234.691 60.7449C237.184 61.5382 240.273 61.9349 243.956 61.9349C250.303 61.9349 254.864 60.5182 257.641 57.6849C260.418 54.7949 261.863 50.5166 261.976 44.8499H248.206C248.206 47.9666 247.809 50.0916 247.016 51.2249C246.279 52.3016 245.231 52.8399 243.871 52.8399C242.794 52.8399 241.831 52.4432 240.981 51.6499C240.131 50.7999 239.706 49.1282 239.706 46.6349V40.5999Z" fill="white"/>
</g>
<defs>
<clipPath id="clip0_410_2">
<rect width="263" height="76" fill="white"/>
</clipPath>
</defs>
</svg>
