<svg width="439" height="80" viewBox="0 0 439 80" fill="none" xmlns="http://www.w3.org/2000/svg">
<path d="M19.53 53.595C18.3967 53.595 17.49 53.1417 16.81 52.235C16.13 51.3283 15.79 50.11 15.79 48.58C15.79 47.05 16.0167 45.8317 16.47 44.925C16.9233 43.9617 17.745 43.1967 18.935 42.63C20.0683 42.12 21.0883 41.8083 21.995 41.695C22.9583 41.525 23.6667 41.1283 24.12 40.505H24.29V46.03C24.29 48.58 23.9217 50.4783 23.185 51.725C22.4483 52.9717 21.23 53.595 19.53 53.595ZM25.225 62.69H40.015C39.3917 61.5 38.995 60.0833 38.825 58.44C38.655 56.7967 38.57 54.8983 38.57 52.745V30.305C38.57 27.3017 38.1167 24.865 37.21 22.995C36.36 21.0683 35.1133 19.5667 33.47 18.49C31.8833 17.3567 29.9567 16.5917 27.69 16.195C25.48 15.7417 23.0433 15.515 20.38 15.515C18.6233 15.515 16.725 15.7133 14.685 16.11C12.645 16.45 10.7467 17.1867 8.99 18.32C7.23333 19.3967 5.76 20.955 4.57 22.995C3.38 24.9783 2.785 27.6417 2.785 30.985H16.045C16.1017 28.5483 16.47 26.9333 17.15 26.14C17.83 25.29 18.9067 24.865 20.38 24.865C22.9867 24.865 24.29 26.2817 24.29 29.115C24.29 30.5317 23.95 31.6367 23.27 32.43C22.59 33.1667 21.4283 33.7333 19.785 34.13L13.75 35.575C11.3133 36.1417 9.27333 36.85 7.63 37.7C5.98667 38.4933 4.68333 39.485 3.72 40.675C2.75667 41.8083 2.04833 43.1683 1.595 44.755C1.19833 46.3417 1 48.2117 1 50.365C1 52.3483 1.22667 54.1617 1.68 55.805C2.13333 57.4483 2.87 58.865 3.89 60.055C4.91 61.245 6.21333 62.1233 7.8 62.69C9.44333 63.3133 11.4267 63.625 13.75 63.625C16.13 63.625 18.2267 63.115 20.04 62.095C21.91 61.075 23.27 59.545 24.12 57.505H24.29C24.4033 58.4683 24.5167 59.375 24.63 60.225C24.7433 61.075 24.9417 61.8967 25.225 62.69ZM60.925 39.655C60.925 37.1617 60.9817 35.1217 61.095 33.535C61.2083 31.8917 61.4067 30.5883 61.69 29.625C62.03 28.605 62.4833 27.8967 63.05 27.5C63.6167 27.1033 64.325 26.905 65.175 26.905C66.0817 26.905 66.8183 27.1033 67.385 27.5C67.9517 27.8967 68.3767 28.605 68.66 29.625C69 30.5883 69.2267 31.8917 69.34 33.535C69.4533 35.1217 69.51 37.1617 69.51 39.655C69.51 42.1483 69.4533 44.2167 69.34 45.86C69.2267 47.5033 69 48.835 68.66 49.855C68.3767 50.8183 67.9517 51.4983 67.385 51.895C66.8183 52.2917 66.0817 52.49 65.175 52.49C64.325 52.49 63.6167 52.2917 63.05 51.895C62.4833 51.4983 62.03 50.8183 61.69 49.855C61.4067 48.835 61.2083 47.5033 61.095 45.86C60.9817 44.2167 60.925 42.1483 60.925 39.655ZM45.625 16.705V77.395H60.925V57.505H61.095C61.8883 59.885 63.135 61.5 64.835 62.35C66.5917 63.2 68.5467 63.625 70.7 63.625C72.8533 63.625 74.78 63.285 76.48 62.605C78.2367 61.8683 79.71 60.6217 80.9 58.865C82.1467 57.0517 83.11 54.6717 83.79 51.725C84.47 48.7783 84.81 45.095 84.81 40.675C84.81 32.175 83.79 25.8567 81.75 21.72C79.71 17.5833 76.14 15.515 71.04 15.515C65.8267 15.515 62.3417 18.0083 60.585 22.995H60.415V16.705H45.625ZM89.7852 2V13.39H105.085V2H89.7852ZM89.7852 16.705V62.69H105.085V16.705H89.7852ZM108.554 16.705V26.99H113.654V51.47C113.654 54.02 113.881 56.0883 114.334 57.675C114.844 59.205 115.609 60.3667 116.629 61.16C117.706 61.9533 119.066 62.4633 120.709 62.69C122.353 62.86 124.336 62.945 126.659 62.945C127.963 62.945 129.323 62.8883 130.739 62.775C132.156 62.7183 133.573 62.69 134.989 62.69V52.49H132.609C131.363 52.49 130.428 52.235 129.804 51.725C129.238 51.1583 128.954 50.2233 128.954 48.92V26.99H134.989V16.705H128.954V3.19H113.654V16.705H108.554ZM138.256 16.705V51.385C138.256 53.8217 138.567 55.8617 139.191 57.505C139.814 59.0917 140.664 60.3667 141.741 61.33C142.817 62.2367 144.064 62.8317 145.481 63.115C146.954 63.455 148.541 63.625 150.241 63.625C155.737 63.625 159.449 61.4433 161.376 57.08H161.546V62.69H176.336V16.705H161.036V47.05C161.036 48.9767 160.752 50.365 160.186 51.215C159.619 52.065 158.656 52.49 157.296 52.49C155.936 52.49 154.972 52.065 154.406 51.215C153.839 50.365 153.556 48.9767 153.556 47.05V16.705H138.256ZM197.971 39.74C197.971 37.2467 198.028 35.1783 198.141 33.535C198.254 31.8917 198.453 30.5883 198.736 29.625C199.076 28.605 199.529 27.8967 200.096 27.5C200.663 27.1033 201.371 26.905 202.221 26.905C203.128 26.905 203.864 27.1033 204.431 27.5C204.998 27.8967 205.423 28.605 205.706 29.625C206.046 30.5883 206.273 31.8917 206.386 33.535C206.499 35.1783 206.556 37.2467 206.556 39.74C206.556 42.1767 206.499 44.2167 206.386 45.86C206.273 47.5033 206.046 48.835 205.706 49.855C205.423 50.8183 204.998 51.4983 204.431 51.895C203.864 52.2917 203.128 52.49 202.221 52.49C201.371 52.49 200.663 52.2917 200.096 51.895C199.529 51.4983 199.076 50.8183 198.736 49.855C198.453 48.835 198.254 47.5033 198.141 45.86C198.028 44.2167 197.971 42.1767 197.971 39.74ZM182.671 2V62.69H197.461V56.4H197.631C198.594 58.95 199.898 60.7917 201.541 61.925C203.184 63.0583 205.366 63.625 208.086 63.625C213.186 63.625 216.756 61.6133 218.796 57.59C220.836 53.5667 221.856 47.2767 221.856 38.72C221.856 34.3 221.516 30.6167 220.836 27.67C220.213 24.6667 219.306 22.2867 218.116 20.53C216.926 18.7167 215.453 17.4417 213.696 16.705C211.939 15.9117 209.956 15.515 207.746 15.515C205.593 15.515 203.638 15.9967 201.881 16.96C200.181 17.8667 198.934 19.51 198.141 21.89H197.971V2H182.671ZM248.931 31.92V33.96H240.516V31.92C240.516 29.4833 240.799 27.6983 241.366 26.565C241.989 25.4317 243.094 24.865 244.681 24.865C246.324 24.865 247.429 25.4317 247.996 26.565C248.619 27.6983 248.931 29.4833 248.931 31.92ZM240.516 42.29H263.211V37.615C263.211 33.4217 262.814 29.9367 262.021 27.16C261.284 24.3267 260.123 22.06 258.536 20.36C257.006 18.6033 255.079 17.3567 252.756 16.62C250.489 15.8833 247.826 15.515 244.766 15.515C241.309 15.515 238.334 15.9683 235.841 16.875C233.404 17.725 231.393 19.1133 229.806 21.04C228.219 22.9667 227.058 25.46 226.321 28.52C225.584 31.58 225.216 35.32 225.216 39.74C225.216 44.1033 225.528 47.815 226.151 50.875C226.831 53.935 227.936 56.4283 229.466 58.355C230.996 60.225 233.008 61.585 235.501 62.435C237.994 63.2283 241.083 63.625 244.766 63.625C251.113 63.625 255.674 62.2083 258.451 59.375C261.228 56.485 262.673 52.2067 262.786 46.54H249.016C249.016 49.6567 248.619 51.7817 247.826 52.915C247.089 53.9917 246.041 54.53 244.681 54.53C243.604 54.53 242.641 54.1333 241.791 53.34C240.941 52.49 240.516 50.8183 240.516 48.325V42.29Z" fill="white"/>
<line x1="288.711" x2="288.711" y2="80" stroke="#848484" stroke-width="3"/>
<path d="M324.385 42.45C324.385 44.3133 324.429 45.8733 324.515 47.13C324.602 48.3867 324.754 49.405 324.97 50.185C325.23 50.9217 325.577 51.4417 326.01 51.745C326.444 52.0483 327.007 52.2 327.7 52.2C328.35 52.2 328.892 52.0483 329.325 51.745C329.759 51.4417 330.084 50.9217 330.3 50.185C330.56 49.405 330.734 48.3867 330.82 47.13C330.907 45.8733 330.95 44.3133 330.95 42.45C330.95 40.5433 330.907 38.9617 330.82 37.705C330.734 36.4483 330.56 35.4517 330.3 34.715C330.084 33.935 329.759 33.3933 329.325 33.09C328.892 32.7867 328.35 32.635 327.7 32.635C327.007 32.635 326.444 32.7867 326.01 33.09C325.577 33.3933 325.23 33.935 324.97 34.715C324.754 35.4517 324.602 36.4483 324.515 37.705C324.429 38.9617 324.385 40.5433 324.385 42.45ZM330.95 13.59H342.65V60H331.34V55.19H331.21C330.474 57.14 329.477 58.5483 328.22 59.415C326.964 60.2817 325.295 60.715 323.215 60.715C319.315 60.715 316.585 59.1767 315.025 56.1C313.465 53.0233 312.685 48.2133 312.685 41.67C312.685 38.3333 312.945 35.5383 313.465 33.285C313.985 31.0317 314.7 29.2117 315.61 27.825C316.564 26.4383 317.712 25.4417 319.055 24.835C320.399 24.2283 321.872 23.925 323.475 23.925C325.122 23.925 326.595 24.2933 327.895 25.03C329.239 25.7233 330.214 26.98 330.82 28.8H330.95V13.59ZM358.155 42.45C358.155 44.66 358.198 46.48 358.285 47.91C358.371 49.2967 358.545 50.4017 358.805 51.225C359.065 52.0483 359.39 52.6117 359.78 52.915C360.213 53.2183 360.755 53.37 361.405 53.37C362.055 53.37 362.596 53.2183 363.03 52.915C363.463 52.6117 363.788 52.0483 364.005 51.225C364.265 50.4017 364.438 49.2967 364.525 47.91C364.611 46.48 364.655 44.66 364.655 42.45C364.655 40.24 364.611 38.42 364.525 36.99C364.438 35.56 364.265 34.4333 364.005 33.61C363.788 32.7867 363.463 32.2233 363.03 31.92C362.596 31.6167 362.055 31.465 361.405 31.465C360.755 31.465 360.213 31.6167 359.78 31.92C359.39 32.2233 359.065 32.7867 358.805 33.61C358.545 34.4333 358.371 35.56 358.285 36.99C358.198 38.42 358.155 40.24 358.155 42.45ZM376.355 42.45C376.355 44.7467 376.181 47 375.835 49.21C375.531 51.42 374.86 53.3917 373.82 55.125C372.78 56.815 371.263 58.18 369.27 59.22C367.32 60.2167 364.698 60.715 361.405 60.715C357.981 60.715 355.273 60.26 353.28 59.35C351.286 58.3967 349.791 57.0967 348.795 55.45C347.798 53.76 347.148 51.81 346.845 49.6C346.585 47.3467 346.455 44.9417 346.455 42.385C346.455 40.0883 346.606 37.835 346.91 35.625C347.256 33.415 347.95 31.4433 348.99 29.71C350.03 27.9767 351.525 26.59 353.475 25.55C355.468 24.4667 358.111 23.925 361.405 23.925C364.828 23.925 367.536 24.4233 369.53 25.42C371.523 26.3733 373.018 27.695 374.015 29.385C375.011 31.075 375.64 33.0467 375.9 35.3C376.203 37.51 376.355 39.8933 376.355 42.45ZM397.48 38.615C397.48 37.185 397.415 36.0367 397.285 35.17C397.155 34.26 396.96 33.5233 396.7 32.96C396.223 31.9633 395.356 31.465 394.1 31.465C393.45 31.465 392.886 31.6383 392.41 31.985C391.976 32.2883 391.63 32.8733 391.37 33.74C391.11 34.5633 390.915 35.69 390.785 37.12C390.698 38.5067 390.655 40.2833 390.655 42.45C390.655 44.6167 390.698 46.415 390.785 47.845C390.915 49.2317 391.11 50.3367 391.37 51.16C391.63 51.9833 391.976 52.5683 392.41 52.915C392.886 53.2183 393.45 53.37 394.1 53.37C395.183 53.37 396.006 52.9583 396.57 52.135C397.176 51.3117 397.48 49.795 397.48 47.585V45.31H408.01C408.01 48.0833 407.771 50.445 407.295 52.395C406.818 54.345 406.016 55.9483 404.89 57.205C402.68 59.545 399.083 60.715 394.1 60.715C391.846 60.715 389.788 60.52 387.925 60.13C386.061 59.74 384.458 58.9167 383.115 57.66C381.815 56.36 380.796 54.5617 380.06 52.265C379.323 49.925 378.955 46.8483 378.955 43.035C378.955 38.875 379.366 35.5383 380.19 33.025C381.013 30.5117 382.118 28.5833 383.505 27.24C384.935 25.8967 386.603 25.0083 388.51 24.575C390.416 24.1417 392.475 23.925 394.685 23.925C397.285 23.925 399.43 24.2933 401.12 25.03C402.853 25.7233 404.218 26.72 405.215 28.02C406.255 29.2767 406.97 30.815 407.36 32.635C407.793 34.4117 408.01 36.405 408.01 38.615H397.48ZM420.324 49.08C420.324 49.7733 420.389 50.4233 420.519 51.03C420.649 51.6367 420.865 52.135 421.169 52.525C421.732 53.3483 422.555 53.76 423.639 53.76C424.549 53.76 425.329 53.5 425.979 52.98C426.672 52.46 427.019 51.7233 427.019 50.77C427.019 49.73 426.585 48.9283 425.719 48.365C424.895 47.8017 423.855 47.3033 422.599 46.87C421.342 46.4367 419.977 45.9817 418.504 45.505C417.074 45.0283 415.73 44.3783 414.474 43.555C413.217 42.7317 412.155 41.6483 411.289 40.305C410.465 38.9183 410.054 37.12 410.054 34.91C410.054 33.35 410.335 31.92 410.899 30.62C411.462 29.2767 412.307 28.1067 413.434 27.11C414.604 26.1133 416.055 25.3333 417.789 24.77C419.565 24.2067 421.645 23.925 424.029 23.925C432.825 23.925 437.224 27.6083 437.224 34.975H427.084C427.084 33.4583 426.802 32.44 426.239 31.92C425.719 31.3567 424.96 31.075 423.964 31.075C423.097 31.075 422.382 31.3133 421.819 31.79C421.255 32.2667 420.974 32.9383 420.974 33.805C420.974 34.8017 421.385 35.56 422.209 36.08C423.075 36.5567 424.137 36.99 425.394 37.38C426.65 37.77 427.994 38.1817 429.424 38.615C430.897 39.0483 432.262 39.6767 433.519 40.5C434.775 41.28 435.815 42.3633 436.639 43.75C437.505 45.0933 437.939 46.8917 437.939 49.145C437.939 50.8783 437.614 52.46 436.964 53.89C436.314 55.32 435.382 56.555 434.169 57.595C432.999 58.635 431.525 59.415 429.749 59.935C428.015 60.455 426.044 60.715 423.834 60.715C418.937 60.715 415.405 59.74 413.239 57.79C411.115 55.84 410.054 52.9367 410.054 49.08H420.324Z" fill="white"/>
</svg>
