<svg width="263" height="76" viewBox="0 0 263 76" fill="none" xmlns="http://www.w3.org/2000/svg">
<path d="M18.72 51.905C17.5867 51.905 16.68 51.4517 16 50.545C15.32 49.6383 14.98 48.42 14.98 46.89C14.98 45.36 15.2067 44.1417 15.66 43.235C16.1133 42.2717 16.935 41.5067 18.125 40.94C19.2583 40.43 20.2783 40.1183 21.185 40.005C22.1483 39.835 22.8567 39.4383 23.31 38.815H23.48V44.34C23.48 46.89 23.1117 48.7883 22.375 50.035C21.6383 51.2817 20.42 51.905 18.72 51.905ZM24.415 61H39.205C38.5817 59.81 38.185 58.3933 38.015 56.75C37.845 55.1067 37.76 53.2083 37.76 51.055V28.615C37.76 25.6117 37.3067 23.175 36.4 21.305C35.55 19.3783 34.3033 17.8767 32.66 16.8C31.0733 15.6667 29.1467 14.9017 26.88 14.505C24.67 14.0517 22.2333 13.825 19.57 13.825C17.8133 13.825 15.915 14.0233 13.875 14.42C11.835 14.76 9.93667 15.4967 8.18 16.63C6.42333 17.7067 4.95 19.265 3.76 21.305C2.57 23.2883 1.975 25.9517 1.975 29.295H15.235C15.2917 26.8583 15.66 25.2433 16.34 24.45C17.02 23.6 18.0967 23.175 19.57 23.175C22.1767 23.175 23.48 24.5917 23.48 27.425C23.48 28.8417 23.14 29.9467 22.46 30.74C21.78 31.4767 20.6183 32.0433 18.975 32.44L12.94 33.885C10.5033 34.4517 8.46333 35.16 6.82 36.01C5.17667 36.8033 3.87333 37.795 2.91 38.985C1.94667 40.1183 1.23833 41.4783 0.785 43.065C0.388333 44.6517 0.19 46.5217 0.19 48.675C0.19 50.6583 0.416667 52.4717 0.87 54.115C1.32333 55.7583 2.06 57.175 3.08 58.365C4.1 59.555 5.40333 60.4333 6.99 61C8.63333 61.6233 10.6167 61.935 12.94 61.935C15.32 61.935 17.4167 61.425 19.23 60.405C21.1 59.385 22.46 57.855 23.31 55.815H23.48C23.5933 56.7783 23.7067 57.685 23.82 58.535C23.9333 59.385 24.1317 60.2067 24.415 61ZM60.115 37.965C60.115 35.4717 60.1717 33.4317 60.285 31.845C60.3983 30.2017 60.5967 28.8983 60.88 27.935C61.22 26.915 61.6733 26.2067 62.24 25.81C62.8067 25.4133 63.515 25.215 64.365 25.215C65.2717 25.215 66.0083 25.4133 66.575 25.81C67.1417 26.2067 67.5667 26.915 67.85 27.935C68.19 28.8983 68.4167 30.2017 68.53 31.845C68.6433 33.4317 68.7 35.4717 68.7 37.965C68.7 40.4583 68.6433 42.5267 68.53 44.17C68.4167 45.8133 68.19 47.145 67.85 48.165C67.5667 49.1283 67.1417 49.8083 66.575 50.205C66.0083 50.6017 65.2717 50.8 64.365 50.8C63.515 50.8 62.8067 50.6017 62.24 50.205C61.6733 49.8083 61.22 49.1283 60.88 48.165C60.5967 47.145 60.3983 45.8133 60.285 44.17C60.1717 42.5267 60.115 40.4583 60.115 37.965ZM44.815 15.015V75.705H60.115V55.815H60.285C61.0783 58.195 62.325 59.81 64.025 60.66C65.7817 61.51 67.7367 61.935 69.89 61.935C72.0433 61.935 73.97 61.595 75.67 60.915C77.4267 60.1783 78.9 58.9317 80.09 57.175C81.3367 55.3617 82.3 52.9817 82.98 50.035C83.66 47.0883 84 43.405 84 38.985C84 30.485 82.98 24.1667 80.94 20.03C78.9 15.8933 75.33 13.825 70.23 13.825C65.0167 13.825 61.5317 16.3183 59.775 21.305H59.605V15.015H44.815ZM88.9752 0.309996V11.7H104.275V0.309996H88.9752ZM88.9752 15.015V61H104.275V15.015H88.9752ZM107.744 15.015V25.3H112.844V49.78C112.844 52.33 113.071 54.3983 113.524 55.985C114.034 57.515 114.799 58.6767 115.819 59.47C116.896 60.2633 118.256 60.7733 119.899 61C121.543 61.17 123.526 61.255 125.849 61.255C127.153 61.255 128.513 61.1983 129.929 61.085C131.346 61.0283 132.763 61 134.179 61V50.8H131.799C130.553 50.8 129.618 50.545 128.994 50.035C128.428 49.4683 128.144 48.5333 128.144 47.23V25.3H134.179V15.015H128.144V1.5H112.844V15.015H107.744ZM137.446 15.015V49.695C137.446 52.1317 137.757 54.1717 138.381 55.815C139.004 57.4017 139.854 58.6767 140.931 59.64C142.007 60.5467 143.254 61.1417 144.671 61.425C146.144 61.765 147.731 61.935 149.431 61.935C154.927 61.935 158.639 59.7533 160.566 55.39H160.736V61H175.526V15.015H160.226V45.36C160.226 47.2867 159.942 48.675 159.376 49.525C158.809 50.375 157.846 50.8 156.486 50.8C155.126 50.8 154.162 50.375 153.596 49.525C153.029 48.675 152.746 47.2867 152.746 45.36V15.015H137.446ZM197.161 38.05C197.161 35.5567 197.218 33.4883 197.331 31.845C197.444 30.2017 197.643 28.8983 197.926 27.935C198.266 26.915 198.719 26.2067 199.286 25.81C199.853 25.4133 200.561 25.215 201.411 25.215C202.318 25.215 203.054 25.4133 203.621 25.81C204.188 26.2067 204.613 26.915 204.896 27.935C205.236 28.8983 205.463 30.2017 205.576 31.845C205.689 33.4883 205.746 35.5567 205.746 38.05C205.746 40.4867 205.689 42.5267 205.576 44.17C205.463 45.8133 205.236 47.145 204.896 48.165C204.613 49.1283 204.188 49.8083 203.621 50.205C203.054 50.6017 202.318 50.8 201.411 50.8C200.561 50.8 199.853 50.6017 199.286 50.205C198.719 49.8083 198.266 49.1283 197.926 48.165C197.643 47.145 197.444 45.8133 197.331 44.17C197.218 42.5267 197.161 40.4867 197.161 38.05ZM181.861 0.309996V61H196.651V54.71H196.821C197.784 57.26 199.088 59.1017 200.731 60.235C202.374 61.3683 204.556 61.935 207.276 61.935C212.376 61.935 215.946 59.9233 217.986 55.9C220.026 51.8767 221.046 45.5867 221.046 37.03C221.046 32.61 220.706 28.9267 220.026 25.98C219.403 22.9767 218.496 20.5967 217.306 18.84C216.116 17.0267 214.643 15.7517 212.886 15.015C211.129 14.2217 209.146 13.825 206.936 13.825C204.783 13.825 202.828 14.3067 201.071 15.27C199.371 16.1767 198.124 17.82 197.331 20.2H197.161V0.309996H181.861ZM248.121 30.23V32.27H239.706V30.23C239.706 27.7933 239.989 26.0083 240.556 24.875C241.179 23.7417 242.284 23.175 243.871 23.175C245.514 23.175 246.619 23.7417 247.186 24.875C247.809 26.0083 248.121 27.7933 248.121 30.23ZM239.706 40.6H262.401V35.925C262.401 31.7317 262.004 28.2467 261.211 25.47C260.474 22.6367 259.313 20.37 257.726 18.67C256.196 16.9133 254.269 15.6667 251.946 14.93C249.679 14.1933 247.016 13.825 243.956 13.825C240.499 13.825 237.524 14.2783 235.031 15.185C232.594 16.035 230.583 17.4233 228.996 19.35C227.409 21.2767 226.248 23.77 225.511 26.83C224.774 29.89 224.406 33.63 224.406 38.05C224.406 42.4133 224.718 46.125 225.341 49.185C226.021 52.245 227.126 54.7383 228.656 56.665C230.186 58.535 232.198 59.895 234.691 60.745C237.184 61.5383 240.273 61.935 243.956 61.935C250.303 61.935 254.864 60.5183 257.641 57.685C260.418 54.795 261.863 50.5167 261.976 44.85H248.206C248.206 47.9667 247.809 50.0917 247.016 51.225C246.279 52.3017 245.231 52.84 243.871 52.84C242.794 52.84 241.831 52.4433 240.981 51.65C240.131 50.8 239.706 49.1283 239.706 46.635V40.6Z" fill="black"/>
</svg>
